<?xml version="1.0" encoding="utf-8"?>
<svg version="1.1" xmlns:xlink="http://www.w3.org/1999/xlink" width="31px" height="14px" xmlns="http://www.w3.org/2000/svg">
  <g transform="matrix(1 0 0 1 -226 -34 )">
    <path d="M 13.3160162189559 0.1298828125  C 13.4155262713296 0.216471354166666  13.4652812975165 0.319010416666666  13.4652812975165 0.4375  L 13.4652812975165 2.037109375  C 13.4652812975165 2.15559895833333  13.4155262713296 2.255859375  13.3160162189559 2.337890625  C 13.2165061665822 2.419921875  13.098665315087 2.4609375  12.9624936644703 2.4609375  L 8.28028383172833 2.4609375  L 8.28028383172833 13.5625  C 8.28028383172833 13.6809895833333  8.23314749113026 13.7835286458333  8.13887480993411 13.8701171875  C 8.04460212873796 13.9567057291667  7.92937996283156 14  7.7932083122149 14  L 5.67207298530157 14  C 5.53590133468491 14  5.41806048318973 13.958984375  5.31855043081602 13.876953125  C 5.2190403784423 13.794921875  5.16928535225545 13.6901041666667  5.16928535225545 13.5625  L 5.16928535225545 2.4609375  L 0.502787633046123 2.4609375  C 0.366615982429464 2.4609375  0.248775130934279 2.419921875  0.149265078560568 2.337890625  C 0.0497550261868559 2.255859375  0 2.15559895833333  0 2.037109375  L 0 0.4375  C 0 0.309895833333333  0.047136340598074 0.205078125  0.141409021794222 0.123046875  C 0.23568170299037 0.041015625  0.356141240074337 0  0.502787633046123 0  L 12.9624936644703 0  C 13.098665315087 0  13.2165061665822 0.0432942708333328  13.3160162189559 0.1298828125  Z M 29.6173340091232 0.1162109375  C 29.7116066903193 0.193684895833333  29.763980402095 0.287109375  29.7744551444501 0.396484375  L 30.9842878864673 13.53515625  C 30.9947626288224 13.6536458333333  30.9528636594019 13.7630208333333  30.8585909782058 13.86328125  C 30.7538435546545 13.9544270833333  30.6333840175705 14  30.4972123669539 14  L 28.3917891535732 14  C 28.2660922453117 14  28.1561074505829 13.9612630208333  28.0618347693867 13.8837890625  C 27.9675620881906 13.8063151041667  27.9151883764149 13.712890625  27.9047136340598 13.603515625  L 27.181956411556 5.564453125  L 24.2123669538773 11.375  C 24.1285690150363 11.5481770833333  23.976685250887 11.634765625  23.7567156614293 11.634765625  L 21.8712620375063 11.634765625  C 21.6617671904038 11.634765625  21.5098834262544 11.5481770833333  21.4156107450583 11.375  L 18.4617334009123 5.537109375  L 17.7546882919412 13.603515625  C 17.7442135495861 13.712890625  17.6918398378104 13.8063151041667  17.5975671566143 13.8837890625  C 17.5032944754181 13.9612630208333  17.3933096806893 14  17.2676127724278 14  L 15.1464774455144 14  C 15.0103057948978 14  14.8898462578138 13.9544270833333  14.7850988342625 13.86328125  C 14.6908261530664 13.7721354166667  14.6436898124683 13.6627604166667  14.6436898124683 13.53515625  L 15.8692346680182 0.396484375  C 15.8797094103734 0.287109375  15.932083122149 0.193684895833333  16.0263558033452 0.1162109375  C 16.1206284845413 0.0387369791666656  16.2306132792701 0  16.3563101875317 0  L 18.5874303091738 0  C 18.7969251562764 0  18.9488089204257 0.0865885416666656  19.0430816016219 0.259765625  L 22.499746578814 7.369140625  C 22.6044940023653 7.587890625  22.7092414259165 7.8203125  22.8139888494678 8.06640625  C 22.8454130765332 8.00260416666667  22.8951681027201 7.89095052083333  22.9632539280284 7.7314453125  C 23.0313397533367 7.57194010416667  23.0863321507011 7.451171875  23.1282311201216 7.369140625  L 26.6006082108464 0.259765625  C 26.6948808920426 0.0865885416666656  26.8467646561919 0  27.0562595032945 0  L 29.271667511404 0  C 29.4078391620206 0  29.523061327927 0.0387369791666656  29.6173340091232 0.1162109375  Z " fill-rule="nonzero" fill="#000000" stroke="none" transform="matrix(1 0 0 1 226 34 )" />
  </g>
</svg>